<svg version="1.1" id="Layer_1" xmlns="http://www.w3.org/2000/svg" xmlns:xlink="http://www.w3.org/1999/xlink" x="0px" y="0px"
	 width="100%" viewBox="0 0 365 433" enable-background="new 0 0 365 433" xml:space="preserve">
<path fill="#D9423B" opacity="1.000000" stroke="none" 
	d="
M157.490311,34.302601 
	C178.867294,33.324074 199.647202,33.434048 219.577179,41.365940 
	C247.726685,52.569099 269.824402,70.879601 285.361481,96.948914 
	C295.288330,113.605003 301.104218,131.535583 303.109924,150.919724 
	C306.806732,186.646790 296.091766,218.148956 275.559998,246.665802 
	C266.477264,259.280914 255.668716,270.642914 246.374008,283.117950 
	C221.925888,315.931427 201.700256,351.123871 187.823135,389.790680 
	C185.755341,395.552307 183.270950,401.439697 175.728271,401.987549 
	C168.675613,402.499786 164.192795,398.719299 161.043503,390.474365 
	C157.234146,380.501312 153.432755,370.496674 148.980774,360.802887 
	C134.926208,330.200409 117.158760,301.813477 96.595589,275.184662 
	C87.398445,263.274567 77.037987,252.186401 68.622276,239.765305 
	C51.461948,214.437607 43.060902,186.165665 45.142857,155.443604 
	C47.059216,127.165047 57.220936,101.953217 75.460884,80.034271 
	C90.312958,62.186539 108.425018,48.942719 130.249878,41.178921 
	C138.892181,38.104576 148.091629,36.596478 157.490311,34.302601 
M234.507553,127.176941 
	C230.582916,121.847549 227.305496,115.849899 222.617142,111.309036 
	C205.871277,95.090042 185.705795,88.186935 162.524185,92.104271 
	C131.054337,97.422195 106.838646,124.468658 106.101250,157.379684 
	C105.618866,178.909607 113.991600,196.839691 130.446808,211.176605 
	C153.490173,231.253555 189.178772,232.277130 213.094650,214.984268 
	C231.788773,201.467117 241.708603,183.365646 242.142609,160.034882 
	C242.355469,148.591415 239.429855,138.085678 234.507553,127.176941 
z"/>
<path fill="#992722" opacity="1.000000" stroke="none" 
	d="
M234.678299,127.510269 
	C239.429855,138.085678 242.355469,148.591415 242.142609,160.034882 
	C241.708603,183.365646 231.788773,201.467117 213.094650,214.984268 
	C189.178772,232.277130 153.490173,231.253555 130.446808,211.176605 
	C113.991600,196.839691 105.618866,178.909607 106.101250,157.379684 
	C106.838646,124.468658 131.054337,97.422195 162.524185,92.104271 
	C185.705795,88.186935 205.871277,95.090042 222.617142,111.309036 
	C227.305496,115.849899 230.582916,121.847549 234.678299,127.510269 
z"/>
</svg>